Coordinates
version=1
nRows=60
nColumns=12
inDegrees=yes

Units are S.I. units (second, meters, Newtons, ...)
Angles are in degrees

endheader
time	SC_y	SC_z	SC_x	AC_y	AC_z	AC_x	GH_y	GH_z	GH_yy	EL_x	PS_y
       0.0              -12.59          24.68          12.73           32.0         -18.68         -12.84         -140.1          6.028         -58.39          98.66          125.3
  0.001686              -12.59          24.68          12.73           32.0         -18.68         -12.84         -140.1          6.031         -58.41          98.65          125.3
  0.003371              -12.59          24.68          12.73          32.01         -18.67         -12.84         -140.0          6.035         -58.43          98.64          125.3
  0.005057              -12.59          24.68          12.73          32.01         -18.67         -12.84         -140.0          6.039         -58.45          98.63          125.3
  0.006742              -12.59          24.69          12.72          32.01         -18.67         -12.84         -140.0          6.042         -58.47          98.62          125.3
  0.008428              -12.59          24.69          12.72          32.01         -18.66         -12.84         -139.9          6.047         -58.49           98.6          125.3
   0.01011              -12.59          24.69          12.72          32.02         -18.66         -12.83         -139.9          6.051         -58.51          98.59          125.3
    0.0118              -12.59          24.69          12.72          32.02         -18.65         -12.83         -139.9          6.056         -58.54          98.57          125.2
   0.01348              -12.59          24.69          12.72          32.02         -18.65         -12.83         -139.8          6.061         -58.57          98.56          125.2
   0.01517               -12.6          24.69          12.72          32.02         -18.64         -12.83         -139.8          6.066         -58.59          98.54          125.2
   0.01686               -12.6           24.7          12.72          32.03         -18.63         -12.82         -139.7          6.072         -58.63          98.52          125.2
   0.01854               -12.6           24.7          12.71          32.03         -18.63         -12.82         -139.7          6.078         -58.66           98.5          125.2
   0.02023               -12.6           24.7          12.71          32.04         -18.62         -12.82         -139.6          6.085         -58.69          98.48          125.1
   0.02191               -12.6           24.7          12.71          32.04         -18.61         -12.81         -139.6          6.092         -58.73          98.45          125.1
    0.0236               -12.6          24.71          12.71          32.04          -18.6         -12.81         -139.5            6.1         -58.78          98.43          125.1
   0.02528               -12.6          24.71          12.71          32.05         -18.59          -12.8         -139.5          6.109         -58.82           98.4          125.0
   0.02697               -12.6          24.71           12.7          32.06         -18.58          -12.8         -139.4          6.118         -58.87          98.37          125.0
   0.02866              -12.61          24.72           12.7          32.06         -18.57         -12.79         -139.3          6.128         -58.92          98.33          125.0
   0.03034              -12.61          24.72           12.7          32.07         -18.56         -12.79         -139.2          6.139         -58.98           98.3          124.9
   0.03203              -12.61          24.73          12.69          32.07         -18.55         -12.78         -139.1          6.152         -59.05          98.26          124.9
   0.03371              -12.61          24.73          12.69          32.08         -18.53         -12.77         -139.0          6.165         -59.12          98.21          124.8
    0.0354              -12.62          24.74          12.69          32.09         -18.52         -12.77         -138.9           6.18          -59.2          98.16          124.8
   0.03708              -12.62          24.74          12.68           32.1          -18.5         -12.76         -138.8          6.196         -59.28          98.11          124.7
   0.03877              -12.62          24.75          12.68          32.11         -18.48         -12.75         -138.6          6.214         -59.38          98.05          124.6
   0.04045              -12.62          24.76          12.67          32.12         -18.46         -12.74         -138.5          6.234         -59.48          97.99          124.6
   0.04214              -12.63          24.77          12.66          32.14         -18.44         -12.73         -138.3          6.256          -59.6          97.91          124.5
   0.04383              -12.63          24.78          12.66          32.15         -18.41         -12.72         -138.1          6.281         -59.73          97.83          124.4
   0.04551              -12.64          24.79          12.65          32.17         -18.38          -12.7         -137.9          6.309         -59.88          97.74          124.3
    0.0472              -12.64           24.8          12.64          32.19         -18.35         -12.69         -137.6          6.341         -60.05          97.63          124.1
   0.04888              -12.65          24.81          12.63          32.21         -18.31         -12.67         -137.4          6.377         -60.24          97.51          124.0
   0.05057              -12.66          24.83          12.62          32.23         -18.26         -12.65         -137.0          6.418         -60.46          97.38          123.8
   0.05225              -12.66          24.84          12.61          32.26         -18.21         -12.62         -136.7          6.465         -60.71          97.22          123.7
   0.05394              -12.67          24.86          12.59          32.29         -18.15          -12.6         -136.3           6.52          -61.0          97.04          123.5
   0.05562              -12.68          24.89          12.57          32.33         -18.08         -12.56         -135.8          6.583         -61.33          96.83          123.2
   0.05731               -12.7          24.92          12.55          32.37         -18.01         -12.53         -135.2          6.657         -61.73          96.59          122.9
     0.059              -12.71          24.95          12.53          32.43         -17.91         -12.48         -134.5          6.744         -62.19           96.3          122.6
   0.06068              -12.73          24.99           12.5          32.49          -17.8         -12.43         -133.7          6.848         -62.74          95.96          122.2
   0.06237              -12.75          25.03          12.46          32.56         -17.67         -12.37         -132.7          6.972          -63.4          95.55          121.7
   0.06405              -12.78          25.09          12.42          32.65          -17.5         -12.29         -131.5          7.123          -64.2          95.05          121.1
   0.06574              -12.81          25.16          12.37          32.76         -17.31          -12.2         -130.1          7.307         -65.17          94.45          120.4
   0.06742              -12.85          25.25          12.31          32.89         -17.06         -12.08         -128.3          7.533         -66.37           93.7          119.6
   0.06911              -12.89          25.35          12.23          33.06         -16.76         -11.94         -126.1          7.816         -67.87          92.77          118.5
    0.0708              -12.96          25.49          12.13          33.27         -16.38         -11.76         -123.3          8.173         -69.76          91.59          117.1
   0.07248              -13.03          25.66           12.0          33.54         -15.89         -11.53         -119.8          8.626         -72.16           90.1          115.3
   0.07417              -13.13          25.87          11.83          33.89         -15.27         -11.23         -115.3          9.206         -75.24          88.18          113.1
   0.07585              -13.26          26.15          11.63          34.33         -14.47         -10.85         -109.5           9.95         -79.18          85.73          110.3
   0.07754              -13.42          26.51          11.36          34.89         -13.45         -10.37         -102.0           10.9         -84.22           82.6          106.6
   0.07922              -13.63          26.96          11.02           35.6         -12.16         -9.766         -92.72           12.1         -90.56          78.65          102.0
   0.08091              -13.87           27.5          10.61          36.47          -10.6         -9.027         -81.35          13.55         -98.28          73.85          96.39
   0.08259              -14.16          28.14          10.14          37.47         -8.782          -8.17         -68.17          15.24         -107.2          68.28          89.89
   0.08428              -14.48          28.82          9.622          38.55         -6.818         -7.243         -53.89          17.07         -116.9          62.25          82.85
   0.08597              -14.79          29.51          9.107          39.64         -4.854         -6.315         -39.62           18.9         -126.6          56.23          75.82
   0.08765              -15.08          30.14          8.632          40.64          -3.04         -5.459         -26.44          20.58         -135.6          50.66          69.32
   0.08934              -15.33          30.69          8.222           41.5         -1.475          -4.72         -15.07          22.04         -143.3          45.85          63.71
   0.09102              -15.53          31.14          7.886          42.21        -0.1902         -4.114          -5.74          23.23         -149.6          41.91          59.11
   0.09271              -15.69          31.49          7.618          42.77         0.8311         -3.631          1.681          24.19         -154.7          38.78          55.45
   0.09439              -15.82          31.77          7.409          43.22          1.631         -3.254          7.491          24.93         -158.6          36.32          52.59
   0.09608              -15.92          31.99          7.246          43.56          2.254          -2.96          12.02          25.51         -161.7          34.41          50.36
   0.09776               -16.0          32.16          7.118          43.83          2.741          -2.73          15.56          25.96         -164.1          32.92          48.61
   0.09945              -16.06          32.29          7.018          44.04          3.124         -2.549          18.34          26.32         -166.0          31.74          47.24
